<svg width="32" height="32" viewBox="0 0 32 32" fill="none" xmlns="http://www.w3.org/2000/svg">
<path d="M3.80952 0C1.71465 0 0 1.71465 0 3.80952V28.1905C0 30.2853 1.71465 32 3.80952 32H28.1905C30.2853 32 32 30.2853 32 28.1905V3.80952C32 1.71465 30.2853 0 28.1905 0H3.80952ZM3.80952 1.52381H28.1905C29.4617 1.52381 30.4762 2.5383 30.4762 3.80952V28.1905C30.4762 29.4617 29.4617 30.4762 28.1905 30.4762H3.80952C2.5383 30.4762 1.52381 29.4617 1.52381 28.1905V3.80952C1.52381 2.5383 2.5383 1.52381 3.80952 1.52381ZM7.61905 5.34226C6.78459 5.34226 6.03369 5.59168 5.47768 6.05952C4.92167 6.52737 4.58036 7.22629 4.58036 7.9747C4.58036 9.39732 5.81431 10.5064 7.38393 10.6161C7.38492 10.6166 7.38591 10.6171 7.3869 10.6176C7.4617 10.6431 7.54004 10.6566 7.61905 10.6577C9.35086 10.6577 10.6577 9.44463 10.6577 7.9747C10.6576 7.9613 10.6571 7.9479 10.6563 7.93452C10.5787 6.48673 9.28796 5.34226 7.61905 5.34226ZM7.61905 6.84821C8.6798 6.84821 9.09864 7.32193 9.14435 7.99405C9.13509 8.64643 8.7315 9.15179 7.61905 9.15179C6.5635 9.15179 6.08631 8.61122 6.08631 7.9747C6.08631 7.65644 6.20244 7.41661 6.44643 7.21131C6.69042 7.00601 7.08207 6.84821 7.61905 6.84821ZM5.33333 11.4286C5.13127 11.4286 4.93749 11.5089 4.79461 11.6518C4.65173 11.7946 4.57145 11.9884 4.57143 12.1905V26.6667C4.57145 26.8687 4.65173 27.0625 4.79461 27.2054C4.93749 27.3483 5.13127 27.4286 5.33333 27.4286H9.90476C10.1068 27.4286 10.3006 27.3483 10.4435 27.2054C10.5864 27.0625 10.6666 26.8687 10.6667 26.6667V22.1979V12.1905C10.6666 11.9884 10.5864 11.7946 10.4435 11.6518C10.3006 11.5089 10.1068 11.4286 9.90476 11.4286H5.33333ZM12.1905 11.4286C11.9884 11.4286 11.7946 11.5089 11.6518 11.6518C11.5089 11.7946 11.4286 11.9884 11.4286 12.1905V26.6667C11.4286 26.8687 11.5089 27.0625 11.6518 27.2054C11.7946 27.3483 11.9884 27.4286 12.1905 27.4286H16.7619C16.964 27.4286 17.1577 27.3483 17.3006 27.2054C17.4435 27.0625 17.5238 26.8687 17.5238 26.6667V19.0476C17.5238 18.4155 17.6963 17.7867 18 17.375C18.3037 16.9633 18.6868 16.7162 19.4152 16.7292C20.1662 16.7421 20.5638 16.9994 20.8646 17.4033C21.1654 17.8072 21.3333 18.4127 21.3333 19.0476V26.6667C21.3334 26.8687 21.4136 27.0625 21.5565 27.2054C21.6994 27.3483 21.8932 27.4286 22.0952 27.4286H26.6667C26.8687 27.4286 27.0625 27.3483 27.2054 27.2054C27.3483 27.0625 27.4286 26.8687 27.4286 26.6667V18.4851C27.4286 16.2287 26.7602 14.4414 25.6146 13.2321C24.4689 12.0229 22.8756 11.4286 21.1905 11.4286C19.5889 11.4286 18.3702 11.9656 17.5238 12.5134V12.1905C17.5238 11.9884 17.4435 11.7946 17.3006 11.6518C17.1577 11.5089 16.964 11.4286 16.7619 11.4286H12.1905ZM6.09524 12.9524H9.14286V22.1979V25.9048H6.09524V12.9524ZM12.9524 12.9524H16V14.1414C16 14.3011 16.0503 14.4568 16.1437 14.5865C16.237 14.7161 16.3688 14.8131 16.5203 14.8638C16.6718 14.9145 16.8354 14.9162 16.988 14.8688C17.1406 14.8214 17.2744 14.7273 17.3705 14.5997C17.3705 14.5997 18.567 12.9524 21.1905 12.9524C22.5263 12.9524 23.6719 13.3963 24.5089 14.2798C25.346 15.1633 25.9048 16.5244 25.9048 18.4851V25.9048H22.8571V19.0476C22.8571 18.1587 22.6442 17.2397 22.0878 16.4926C21.5314 15.7454 20.5957 15.2252 19.442 15.2054C18.2823 15.1848 17.3314 15.7158 16.7738 16.4717C16.2162 17.2277 16 18.1559 16 19.0476V25.9048H12.9524V12.9524Z" fill="#1CFAFC"/>
</svg>
