<svg width="57" height="47" viewBox="0 0 57 47" fill="none" xmlns="http://www.w3.org/2000/svg">
<path d="M55.7752 21.7848L50.5706 13.3821C50.6819 13.1747 50.7655 12.9413 50.7655 12.6819C50.7655 11.9039 50.0697 11.2555 49.2347 11.2295L43.4735 1.94504C43.5292 1.78945 43.5848 1.63386 43.5848 1.47826C43.5848 0.648411 42.8612 0 41.9983 0C41.4974 0 41.0799 0.207488 40.7737 0.544619H29.6967C29.4184 0.207585 29.0009 9.68603e-05 28.4999 9.68603e-05C27.999 9.68603e-05 27.5815 0.207584 27.3032 0.544716H16.2818C15.9756 0.207584 15.5582 9.68603e-05 15.0572 9.68603e-05C14.1944 9.68603e-05 13.4707 0.648411 13.4707 1.47836C13.4707 1.63395 13.5264 1.81549 13.5821 1.94514L7.76518 11.3593C7.20866 11.5927 6.81891 12.0855 6.81891 12.682C6.81891 12.7338 6.84675 12.7857 6.84675 12.8376L1.30817 21.759C0.556726 21.8886 0 22.4852 0 23.2113C0 23.9115 0.528775 24.508 1.25248 24.6636L6.98588 33.8963C6.93019 34.0519 6.90234 34.1815 6.90234 34.3631C6.90234 35.0633 7.43112 35.6598 8.15482 35.7894L13.5264 44.4774C13.4707 44.633 13.4151 44.8145 13.4151 44.9961C13.4151 45.8259 14.1387 46.4743 15.0016 46.4743C15.5025 46.4743 15.92 46.2668 16.1984 45.9557H27.3033C27.5815 46.2667 28.0269 46.4742 28.4999 46.4742C28.973 46.4742 29.4184 46.2667 29.6967 45.9556H40.8295C41.1077 46.2408 41.5252 46.4223 41.9706 46.4223C42.8612 46.4223 43.557 45.7481 43.557 44.9441C43.557 44.7885 43.5293 44.6588 43.4736 44.5292L48.8452 35.7893C49.5688 35.6597 50.0977 35.0632 50.0977 34.363C50.0977 34.2074 50.0698 34.0518 50.0141 33.8962L55.7197 24.6635C56.4433 24.5339 57 23.9374 57 23.2112C56.9998 22.511 56.4709 21.9145 55.7752 21.7848V21.7848ZM14.5283 42.0913L9.99177 34.752H14.5283V42.0913ZM14.5283 33.9739H9.99177C9.96392 33.8703 9.90823 33.7666 9.85264 33.6628L14.5283 29.0725V33.9739ZM14.5283 27.9312L9.29591 33.0922C9.15678 33.0403 9.01755 32.9625 8.87842 32.9366L3.08953 23.6002C3.14512 23.4706 3.14512 23.3409 3.14512 23.2112C3.14512 23.0816 3.14512 22.9779 3.11727 22.8741L8.51672 14.1602C8.79509 14.1342 9.07335 14.0564 9.32386 13.9008L14.5284 18.9321V27.9312H14.5283ZM14.5283 18.0243L9.7691 13.434C9.90823 13.2265 9.99177 12.9673 9.99177 12.682C9.99177 12.6561 9.96392 12.6042 9.96392 12.5782L14.5283 11.0481V18.0243ZM14.5283 10.2181L9.99177 11.7483L14.5283 4.43479V10.2181ZM48.4554 14.0046L48.539 14.1342L44.8651 30.3172L38.2411 23.8077L48.4276 13.9786L48.4554 14.0046ZM28.8896 32.8328L30.0864 33.9739H27.7207L28.8896 32.8328ZM28.8617 31.7436L20.2061 23.4706L28.4721 15.3013L37.1 23.7818L28.8617 31.7436V31.7436ZM29.4184 32.3141L37.6566 24.3524L44.6703 31.2509L44.058 33.9739H31.1718L29.4184 32.3141V32.3141ZM41.2191 2.74914C41.3304 2.80103 41.4417 2.85293 41.5809 2.87888L47.5926 12.6301V12.682C47.5926 12.9673 47.676 13.2265 47.8153 13.434L37.6845 23.2372L29.0567 14.7567L41.2191 2.74914ZM40.2729 2.54165L28.4721 14.1861L22.5439 8.35092L39.8274 2.54165H40.2729V2.54165ZM27.4423 2.54165C27.7206 2.80094 28.0824 2.95653 28.4999 2.95653C28.9175 2.95653 29.2792 2.80094 29.5576 2.54165H37.3505L21.9317 7.72845L16.6436 2.54165H27.4423V2.54165ZM15.3634 3.08627L15.4747 2.87888C15.5686 2.85652 15.6614 2.83055 15.753 2.80103L21.0689 8.01388L15.3634 9.93297V3.08627ZM15.3634 10.7628L21.6811 8.63625L27.8876 14.7567L19.6216 22.9L15.3634 18.8284V10.7628ZM15.3634 19.736L19.1484 23.3928L15.3634 27.1014V19.736V19.736ZM15.3634 28.2425L19.7329 23.9375L28.333 32.2623L26.5517 33.9739H15.3634V28.2425V28.2425ZM16.087 43.9327C15.92 43.7771 15.7252 43.6734 15.4747 43.5955L15.3634 43.44V34.752H25.7446L16.2261 43.9327H16.087ZM29.5854 43.9327C29.3071 43.6993 28.9175 43.5178 28.4999 43.5178C28.0824 43.5178 27.6929 43.6993 27.4144 43.9327H17.3949L26.9134 34.752H30.8934L40.4119 43.9327H29.5854ZM42.0541 42.7915L41.6088 43.5177C41.4696 43.5436 41.3584 43.5955 41.247 43.6473L31.979 34.7519H43.8633L42.0541 42.7915V42.7915ZM43.3899 40.639L44.7259 34.752H47.0081L43.3899 40.639ZM47.0081 33.9739H44.8929L45.366 31.9252L47.1473 33.6887C47.0917 33.7665 47.036 33.8702 47.0081 33.9739V33.9739ZM53.8826 23.5743L48.1214 32.9366C47.9822 32.9884 47.843 33.0403 47.7039 33.1181L45.5608 30.9915L49.1512 15.1198L53.9104 22.7963C53.8826 22.926 53.8269 23.0556 53.8269 23.2112C53.8269 23.3409 53.8548 23.4447 53.8826 23.5743Z" fill="#1CFAFC"/>
</svg>
